<svg width="83" height="83" fill="none" xmlns="http://www.w3.org/2000/svg"><g filter="url(#filter0_d)"><circle cx="41.5" cy="37.5" r="37.5" fill="#333"/><path d="M14.63 46l-.315-1.8c1.14-.3 1.83-.54 2.07-.72.27-.18.525-.585.765-1.215L27.23 14.41h3.735L41.27 42.985c.15.45 1.035.825 2.655 1.125l-.18 1.89H33.26l-.27-1.8c2.1-.42 3.15-.915 3.15-1.485 0-.24-.06-.555-.18-.945l-1.98-5.85H22.325l-2.295 6.39c-.12.36-.18.615-.18.765 0 .12.09.195.27.225l3.195.855-.18 1.845H14.63zm8.55-12.465h10.035l-4.41-12.645c-.21-.63-.315-1.065-.315-1.305h-.45l-4.86 13.95zM46.25 61l-.27-1.755c1.59-.27 2.55-.57 2.88-.9.36-.33.54-.96.54-1.89V34.36c0-.93-.18-1.56-.54-1.89-.33-.33-1.29-.63-2.88-.9l.27-1.755h12.555c3.18 0 5.565.78 7.155 2.34 1.59 1.53 2.385 3.705 2.385 6.525 0 2.82-1.05 5.235-3.15 7.245-2.07 2.01-5.1 3.015-9.09 3.015h-2.34v8.595c0 .72.3 1.11.9 1.17l4.545.54L59.03 61H46.25zm7.515-14.445h1.98c1.98 0 3.705-.465 5.175-1.395 1.74-1.11 2.61-3.15 2.61-6.12 0-2.76-.72-4.635-2.16-5.625-1.2-.81-2.505-1.215-3.915-1.215h-2.79c-.6 0-.9.36-.9 1.08v13.275z" fill="#fff"/></g><defs><filter id="filter0_d" x="0" y="0" width="83" height="83" filterUnits="userSpaceOnUse" color-interpolation-filters="sRGB"><feFlood flood-opacity="0" result="BackgroundImageFix"/><feColorMatrix in="SourceAlpha" values="0 0 0 0 0 0 0 0 0 0 0 0 0 0 0 0 0 0 127 0"/><feOffset dy="4"/><feGaussianBlur stdDeviation="2"/><feColorMatrix values="0 0 0 0 0 0 0 0 0 0 0 0 0 0 0 0 0 0 0.25 0"/><feBlend in2="BackgroundImageFix" result="effect1_dropShadow"/><feBlend in="SourceGraphic" in2="effect1_dropShadow" result="shape"/></filter></defs></svg>